PathFileType	4	(X/Y/Z)	Kaydara	
DataRate	CameraRate	NumFrames	NumMarkers	Units	OrigDataRate	OrigDataStartFrame	OrigNumFrames	
60.00	60.00	4	74	mm	60.00	1131	141	
Frame#	Time	Z_lasi			Z_rasi			Z_rpsi			Z_lpsi			Z_fneck			Z_bneck			Z_fhead			Z_rhead			Z_lhead			Z_rshld			Z_relbtop			Z_relbext			Z_relblow			Z_rwrext			Z_rwrtop			Z_rwrlow			Z_lshld			Z_lelbext			Z_lelblow			Z_lelbtop			Z_lwrext			Z_lwrtop			Z_lwrlow			Z_rtopleg			Z_ltopleg			Z_rkneefr			Z_rkneebk			Z_rkneeis			Z_lkneefr			Z_lknssbk			Z_lkneeis			Z_rankfr			Z_rankis			Z_rankbk			Z_lankfr			Z_lankbk			Z_lankis			A_lasi			A_rasi			A_rpsi			A_lpsi			A_fneck			A_bneck			A_fhead			A_rhead			A_lhead			A_rshld			A_relbtop			A_relbext			A_relblow			A_rwrext			A_rwrtop			A_rwrlow			A_lshld			A_lelbext			A_lelblow			A_lelbtop			A_lwrext			A_lwrtop			A_lwrlow			A_rtopleg			A_ltopleg			A_rkneefr			A_rkneebk			A_rkneeis			A_lkneefr			A_lknssbk			A_lkneeis			A_rankfr			A_rankis			A_rankbk			A_lankfr			A_lankbk			A_lankis			
		X1	Y1	Z1	X2	Y2	Z2	X3	Y3	Z3	X4	Y4	Z4	X5	Y5	Z5	X6	Y6	Z6	X7	Y7	Z7	X8	Y8	Z8	X9	Y9	Z9	X10	Y10	Z10	X11	Y11	Z11	X12	Y12	Z12	X13	Y13	Z13	X14	Y14	Z14	X15	Y15	Z15	X16	Y16	Z16	X17	Y17	Z17	X18	Y18	Z18	X19	Y19	Z19	X20	Y20	Z20	X21	Y21	Z21	X22	Y22	Z22	X23	Y23	Z23	X24	Y24	Z24	X25	Y25	Z25	X26	Y26	Z26	X27	Y27	Z27	X28	Y28	Z28	X29	Y29	Z29	X30	Y30	Z30	X31	Y31	Z31	X32	Y32	Z32	X33	Y33	Z33	X34	Y34	Z34	X35	Y35	Z35	X36	Y36	Z36	X37	Y37	Z37	X38	Y38	Z38	X39	Y39	Z39	X40	Y40	Z40	X41	Y41	Z41	X42	Y42	Z42	X43	Y43	Z43	X44	Y44	Z44	X45	Y45	Z45	X46	Y46	Z46	X47	Y47	Z47	X48	Y48	Z48	X49	Y49	Z49	X50	Y50	Z50	X51	Y51	Z51	X52	Y52	Z52	X53	Y53	Z53	X54	Y54	Z54	X55	Y55	Z55	X56	Y56	Z56	X57	Y57	Z57	X58	Y58	Z58	X59	Y59	Z59	X60	Y60	Z60	X61	Y61	Z61	X62	Y62	Z62	X63	Y63	Z63	X64	Y64	Z64	X65	Y65	Z65	X66	Y66	Z66	X67	Y67	Z67	X68	Y68	Z68	X69	Y69	Z69	X70	Y70	Z70	X71	Y71	Z71	X72	Y72	Z72	X73	Y73	Z73	X74	Y74	Z74	

71	18.833	-231.03945	1078.80692	682.40685	-297.62980	1087.07886	486.48483	-132.03549	1114.36203	394.87537	-47.87661	1100.79590	625.31231	-231.55355	1452.91229	567.73010	-118.54507	1509.08615	555.65521	-303.42319	1664.55780	543.44772	-160.51142	1641.47797	457.75417	-144.58067	1655.47745	604.57592	-189.96883	1436.74942	353.23982	-154.98330	1117.36198	271.49958	-128.37133	1100.09514	324.36634	-220.76225	1126.87584	310.85457	-252.66172	889.56657	279.44462	-284.46592	902.74773	310.28242	-259.26956	897.45064	344.86462	-117.77464	1444.74625	743.45871	-83.69795	1127.00287	753.09128	-143.53410	1149.45938	816.11420	-74.56825	1146.83434	821.12831	-221.38454	898.47420	803.52280	-209.73385	889.76234	848.68652	-164.20025	883.43094	839.96407	-184.63739	924.44778	352.67601	-138.62354	895.48515	715.67146	-246.81353	421.37768	401.98711	-177.56384	451.32381	351.18790	-182.88410	430.20561	475.66612	-188.49228	447.76711	681.41235	-82.91733	472.80376	662.05109	-182.77372	442.81315	588.05775	-204.44214	180.05777	376.68854	-180.47134	174.90835	438.80161	-128.32435	172.61610	368.68717	-125.26044	164.89382	676.96327	-70.29663	166.23350	615.23045	-150.02304	173.76060	608.95134	-981.37047	1032.97028	469.48044	-968.96011	1038.42995	629.15279	-1126.82411	1036.72951	652.24655	-1104.42413	1041.60576	469.09733	-1032.30072	1381.93527	566.35693	-1172.75909	1406.20529	556.50116	-984.06967	1595.90454	578.04638	-1131.68213	1553.09692	656.16936	-1125.56244	1556.15540	492.99870	-1109.89166	1351.77658	742.31476	-1069.97353	1086.21857	783.44711	-1120.98877	1044.50233	776.55853	-1069.41887	1081.73401	727.30629	-874.48219	1087.04124	710.35469	-886.11717	1127.97028	693.58467	-902.51709	1111.51779	659.53316	-1068.82141	1354.89227	389.74136	-1046.34277	1044.87686	338.56518	-1006.97067	1066.90468	399.71386	-999.65614	1060.02403	345.92892	-941.86440	877.69699	472.49493	-914.08630	870.48149	441.99883	-889.06067	895.05424	471.48575	-1067.21626	875.48141	732.26364	-1039.61876	890.19218	394.26388	-1027.20634	451.52485	639.61040	-1134.73152	486.38649	685.03166	-1114.91035	485.85304	566.69468	-1013.61633	464.59881	507.56824	-1099.95720	480.16647	412.98923	-1121.09093	479.58549	537.25639	-1099.44901	165.87288	662.84821	-1132.59285	162.60902	596.99909	-1180.61348	154.14284	666.21323	-1068.17444	166.63601	456.59660	-1129.49532	167.96631	421.43005	-1127.43011	173.36290	510.90591 
72	18.850	-231.41541	1078.82210	681.48132	-297.90749	1087.11029	485.56652	-132.31873	1114.35280	393.90598	-48.09588	1100.71587	624.33510	-231.73038	1452.91016	566.64238	-118.80600	1509.08249	554.69891	-303.70531	1664.48471	542.67307	-160.64865	1641.70273	457.10052	-144.89824	1655.48187	603.84880	-190.26922	1436.74454	352.26631	-155.25852	1117.38022	270.50997	-128.67971	1100.10475	323.41522	-220.95423	1126.89247	309.93572	-252.79741	889.56421	278.40815	-284.58929	902.70126	309.29834	-259.39377	897.38434	344.01707	-117.91692	1444.68033	742.50122	-84.49428	1126.90300	752.05246	-144.47624	1149.55482	815.11742	-75.42063	1146.64871	820.24284	-223.38160	899.00131	802.16850	-211.79459	890.20973	847.23099	-166.69403	883.81256	838.62083	-185.17653	924.44855	351.85715	-138.97391	895.49980	714.78432	-246.98296	421.32671	401.67713	-177.76140	451.24897	350.80753	-182.59979	430.15495	474.91802	-188.75084	447.80956	680.97519	-83.35143	472.74994	661.79779	-183.06774	442.78385	587.61990	-204.53125	180.01535	376.57795	-180.52301	174.94207	438.64185	-128.37742	172.57111	368.47439	-125.39449	164.95083	676.86844	-70.40240	166.27134	615.03559	-150.14049	173.70504	608.81710	-980.79498	1033.03459	469.41868	-968.02498	1038.50014	628.76003	-1125.97580	1036.89636	652.07115	-1103.74901	1041.79260	468.93978	-1032.78412	1382.14951	566.93199	-1173.07098	1407.30606	556.66794	-983.61732	1595.26520	578.95569	-1131.61530	1553.93906	656.62720	-1125.08751	1556.89346	493.52642	-1110.79803	1352.71439	742.26295	-1066.27403	1089.20853	783.37173	-1113.99452	1044.18564	773.84583	-1064.67445	1085.68932	726.11664	-874.19968	1112.74162	709.56718	-889.37309	1155.08682	700.61859	-906.15601	1143.98895	665.50789	-1068.32489	1354.97986	390.01583	-1046.12297	1045.02426	338.77636	-1006.08276	1066.82709	399.54781	-999.33350	1060.02151	346.05946	-941.98479	877.08801	472.03220	-914.63036	869.40025	441.24641	-888.78044	893.89893	470.25715	-1066.76041	875.55161	732.09206	-1039.61823	890.22552	394.06345	-1027.25395	451.47339	639.42799	-1134.61227	486.39130	684.90524	-1115.01221	485.83534	566.57471	-1013.86063	464.53999	507.37438	-1100.20195	480.13794	412.77355	-1121.30714	479.62208	537.01187	-1099.43085	165.89436	662.77672	-1132.61520	162.61700	596.94759	-1180.56999	154.16375	666.21284	-1068.25684	166.66216	456.50936	-1129.54918	167.97729	421.33774	-1127.48970	173.39767	510.78812 
73	18.867	-231.77105	1078.83652	680.61684	-298.24362	1087.12135	484.64787	-132.60208	1114.32472	392.96516	-48.51686	1100.70457	623.46169	-231.99017	1452.88055	565.72460	-119.05993	1509.07288	553.82008	-304.01005	1664.30649	541.92360	-160.80259	1641.95129	456.49910	-145.29239	1655.45654	603.22582	-190.57575	1436.71509	351.38100	-155.52592	1117.37633	269.60979	-128.80567	1100.11047	322.44099	-220.88440	1126.83083	309.60468	-252.84601	889.42421	277.71297	-284.75773	902.73422	308.40937	-259.66747	897.37930	343.07022	-118.17439	1444.61884	741.57913	-85.26072	1126.76613	751.13190	-145.16977	1149.46106	814.15176	-76.06793	1146.45248	819.20303	-225.18948	899.51324	800.76736	-213.86393	890.71404	846.00563	-168.56701	883.99155	837.02225	-185.47197	924.36661	350.94330	-139.34766	895.59120	713.85582	-247.26429	421.31554	401.27159	-178.01487	451.15547	350.33298	-182.47553	430.14675	474.37607	-188.81413	447.79663	680.51628	-83.65333	472.80338	661.28754	-183.25970	442.72980	587.16408	-204.60770	179.91920	376.49231	-180.54089	174.97206	438.51524	-128.45897	172.53691	368.30612	-125.45046	165.00187	676.69685	-70.44360	166.31824	614.87083	-150.27865	173.68505	608.68019	-980.49347	1033.08960	469.55513	-967.21703	1038.55446	628.60741	-1125.23537	1036.92825	651.91292	-1102.98607	1041.97220	468.87093	-1033.56125	1382.19284	567.44129	-1173.72314	1408.58688	556.74568	-982.79930	1594.36996	580.06622	-1131.76590	1554.71878	657.00394	-1124.44565	1557.72949	493.91933	-1112.16026	1353.53912	742.26646	-1060.82909	1092.12265	782.82249	-1104.67003	1043.89572	770.93636	-1059.21631	1090.28648	724.24835	-874.60526	1137.78770	708.05466	-893.91998	1179.07532	705.93407	-911.62910	1173.20351	670.09972	-1068.07884	1355.03937	390.31570	-1045.63377	1045.11940	339.02855	-1006.10107	1066.70326	399.99458	-998.84476	1060.00870	346.28967	-941.69785	876.53633	471.87321	-914.81033	868.72162	440.66578	-888.57864	892.93388	469.38286	-1066.24313	875.60951	731.91170	-1039.43687	890.25574	393.92128	-1027.27272	451.39671	639.23382	-1134.79774	486.51009	684.95285	-1115.09056	485.81703	566.47022	-1013.99765	464.49467	507.17777	-1100.31090	480.14202	412.57698	-1121.45714	479.67258	536.79024	-1099.43375	165.89741	662.74178	-1132.63000	162.60387	596.92608	-1180.57739	154.17122	666.20399	-1068.30605	166.70784	456.43246	-1129.60037	167.98788	421.23905	-1127.52640	173.41148	510.67150 
74	18.883	-232.02593	1078.83545	679.71710	-298.57132	1087.13333	483.83827	-132.93344	1114.31122	392.16358	-48.84681	1100.66544	622.61005	-232.23940	1452.88483	564.87122	-119.38809	1509.01535	553.02597	-304.37334	1664.15039	541.14258	-160.97597	1642.12631	455.85358	-145.72330	1655.39200	602.74475	-190.92686	1436.69144	350.51624	-155.82864	1117.35542	268.78839	-129.13912	1100.12672	321.64291	-221.39341	1126.70837	308.05798	-253.00865	889.39560	276.66811	-284.98230	902.62825	307.53832	-259.88863	897.35329	342.21592	-118.41636	1444.59686	740.76920	-85.94316	1126.67320	750.23712	-145.82955	1149.53499	813.12904	-76.77245	1146.27441	818.35129	-226.96928	900.02213	799.39613	-215.60705	890.97687	844.56261	-170.08745	884.01573	835.67154	-185.81026	924.33266	350.06180	-139.59322	895.59685	713.05344	-247.56340	421.32965	400.88001	-178.28381	451.08585	349.93641	-182.58192	430.21980	473.90289	-188.92183	447.84687	680.03113	-83.90805	472.85988	660.81085	-183.57924	442.67708	586.83754	-204.72822	179.86506	376.38794	-180.66385	175.00679	438.37551	-128.55759	172.52516	368.11871	-125.47918	165.02893	676.53030	-70.58046	166.31599	614.82510	-150.39487	173.65700	608.55103	-979.19876	1033.16795	468.97846	-966.69189	1038.58398	628.69385	-1124.59412	1036.81366	651.69655	-1102.22000	1042.00371	469.13540	-1034.59320	1382.10052	567.91359	-1174.53194	1409.78653	556.69785	-981.90773	1593.06549	581.06731	-1131.80061	1555.46722	657.09213	-1123.50838	1558.37387	494.18018	-1113.48373	1354.05350	742.27272	-1054.08966	1095.19302	782.05574	-1093.70399	1043.80722	767.81677	-1052.09648	1093.08136	722.60681	-876.56624	1162.32437	707.44026	-899.43390	1201.87645	709.60876	-917.59338	1198.01262	674.02885	-1068.24760	1355.05295	390.58712	-1044.98573	1045.27832	339.30969	-1005.19730	1066.69716	400.32928	-998.26302	1060.10193	346.66821	-941.38214	876.15135	471.67366	-914.66270	868.19824	440.20290	-888.13843	892.17278	468.88493	-1065.76668	875.60921	731.76552	-1039.11377	890.28503	393.81599	-1027.23373	451.33366	639.07707	-1134.71359	486.55567	684.86610	-1115.06508	485.79327	566.39973	-1014.05853	464.45740	507.04533	-1100.33852	480.16392	412.41600	-1121.52260	479.68552	536.59889	-1099.38179	165.90742	662.69905	-1132.62482	162.63172	596.92394	-1180.50522	154.25046	666.23146	-1068.33527	166.72506	456.36280	-1129.63112	168.00640	421.16627	-1127.55569	173.45200	510.58903 
